Coordinates
version=1
nRows=33
nColumns=30
inDegrees=yes

Units are S.I. units (second, meters, Newtons, ...)
Angles are in degrees.

endheader
time	floatyaw	floatroll	floatpitch	floatx	floaty	floatz	pro_sup_l	deviation_l	flexion_l	cmc_flexion_l	cmc_abduction_l	mp_flexion_l	ip_flexion_l	2mcp_flexion_l	2mcp_abduction_l	2pm_flexion_l	2md_flexion_l	3mcp_flexion_l	3mcp_abduction_l	3pm_flexion_l	3md_flexion_l	4mcp_flexion_l	4mcp_abduction_l	4pm_flexion_l	4md_flexion_l	5mcp_flexion_l	5mcp_abduction_l	5pm_flexion_l	5md_flexion_l
-1.495000	-160.147433	-5.066637	-73.570646	0.080251	-0.182084	-0.017062	102.397719	3.852951	-1.150344	13.545197	9.222325	-25.892367	-41.513870	30.028094	6.832569	43.959679	29.976537	24.399197	4.190574	45.679433	30.317724	13.712185	-4.403285	52.688851	36.313132	2.543203	-7.908290	61.038035	42.240834
-1.485000	-160.147433	-5.066637	-73.570646	0.080247	-0.182086	-0.017064	102.378357	3.844509	-1.148338	13.516800	9.243409	-25.893717	-41.519614	30.047153	6.824952	43.969512	29.973185	24.396046	4.192408	45.677875	30.314307	13.707072	-4.404877	52.698500	36.316388	2.535168	-7.910488	61.037041	42.239500
-1.475000	-160.147433	-5.066637	-73.570646	0.080242	-0.182085	-0.017066	102.362245	3.835907	-1.146209	13.496322	9.264686	-25.896075	-41.523970	30.065050	6.819292	43.984839	29.975259	24.392631	4.194402	45.682376	30.314843	13.704149	-4.407069	52.710854	36.320786	2.532762	-7.911193	61.034707	42.236753
-1.465000	-160.147433	-5.066637	-73.570646	0.080237	-0.182082	-0.017069	102.353606	3.828904	-1.145359	13.485187	9.286309	-25.900186	-41.527643	30.077905	6.817325	44.003882	29.982118	24.390372	4.196765	45.692460	30.319719	13.705398	-4.409789	52.724114	36.325847	2.539301	-7.911427	61.034307	42.233886
-1.455000	-160.147433	-5.066637	-73.570646	0.080231	-0.182078	-0.017070	102.355428	3.825799	-1.146470	13.481595	9.307364	-25.906535	-41.531471	30.083566	6.819907	44.021046	29.990487	24.389233	4.199586	45.706578	30.328499	13.711502	-4.413121	52.736266	36.331047	2.554518	-7.912101	61.037617	42.232031
-1.445000	-160.147433	-5.066637	-73.570646	0.080226	-0.182073	-0.017069	102.367847	3.828273	-1.149094	13.481415	9.326664	-25.915279	-41.536094	30.082767	6.826676	44.029028	29.995887	24.387644	4.202805	45.722765	30.340115	13.721174	-4.417267	52.745917	36.335984	2.574230	-7.913461	61.043613	42.231411
-1.435000	-160.147433	-5.066637	-73.570646	0.080222	-0.182068	-0.017067	102.387416	3.836082	-1.151834	13.479929	9.343853	-25.926130	-41.541608	30.079144	6.835947	44.022900	29.995037	24.383530	4.206237	45.739260	30.353168	13.731509	-4.422229	52.752494	36.340396	2.592191	-7.915039	61.048750	42.231139
-1.425000	-160.147433	-5.066637	-73.570646	0.080219	-0.182064	-0.017064	102.408139	3.846676	-1.153016	13.473606	9.360259	-25.938110	-41.547396	30.077841	6.845106	44.003595	29.987711	24.375829	4.209640	45.754681	30.366090	13.739335	-4.427474	52.755926	36.344074	2.603068	-7.916137	61.049056	42.229895
-1.415000	-160.147433	-5.066637	-73.570646	0.080217	-0.182060	-0.017060	102.424121	3.856341	-1.151428	13.461138	9.378718	-25.949491	-41.552327	30.083059	6.851534	43.978158	29.976791	24.365435	4.212791	45.767655	30.377115	13.742708	-4.431990	52.756346	36.346852	2.604663	-7.916407	61.042849	42.227106
-1.405000	-160.147433	-5.066637	-73.570646	0.080216	-0.182056	-0.017058	102.432326	3.862217	-1.146763	13.443413	9.401996	-25.958438	-41.555477	30.095703	6.853669	43.956241	29.966500	24.354876	4.215569	45.776219	30.384265	13.741574	-4.434788	52.754172	36.348726	2.598101	-7.916001	61.032179	42.223749
-1.395000	-160.147433	-5.066637	-73.570646	0.080216	-0.182051	-0.017058	102.433560	3.863747	-1.139628	13.422535	9.430706	-25.964386	-41.557148	30.112649	6.851581	43.944996	29.959981	24.346964	4.217994	45.777599	30.385599	13.737223	-4.435498	52.750327	36.349928	2.586150	-7.915208	61.021854	42.222050
-1.385000	-160.147433	-5.066637	-73.570646	0.080217	-0.182045	-0.017059	102.430984	3.862535	-1.131210	13.400480	9.462434	-25.969154	-41.559362	30.128225	6.846728	43.945715	29.957848	24.343312	4.220194	45.768932	30.379860	13.731027	-4.434603	52.746178	36.350798	2.571126	-7.913961	61.016508	42.224157
-1.375000	-160.147433	-5.066637	-73.570646	0.080218	-0.182039	-0.017062	102.427425	3.860901	-1.122796	13.378211	9.493148	-25.976446	-41.564942	30.136966	6.841114	43.954271	29.958570	24.343601	4.222273	45.748998	30.367376	13.723430	-4.433133	52.743146	36.351521	2.553989	-7.911768	61.017643	42.230596
-1.365000	-160.147433	-5.066637	-73.570646	0.080219	-0.182034	-0.017063	102.423689	3.860365	-1.115325	13.355788	9.520014	-25.989513	-41.575309	30.135887	6.836449	43.964625	29.960207	24.345822	4.224165	45.720121	30.350773	13.713890	-4.432024	52.742297	36.352013	2.535222	-7.908235	61.022612	42.239591
-1.355000	-160.147433	-5.066637	-73.570646	0.080220	-0.182031	-0.017064	102.419049	3.861142	-1.109121	13.333226	9.543433	-26.008442	-41.588514	30.125160	6.833748	43.972768	29.962179	24.347136	4.225617	45.688821	30.334882	13.701691	-4.431606	52.744221	36.352131	2.516523	-7.903780	61.026288	42.247791
-1.345000	-160.147433	-5.066637	-73.570646	0.080222	-0.182030	-0.017064	102.413044	3.862701	-1.103890	13.311234	9.566699	-26.029253	-41.599326	30.107436	6.833325	43.978620	29.965828	24.344862	4.226380	45.664186	30.325476	13.686889	-4.431524	52.749189	36.352074	2.501481	-7.899882	61.024264	42.252033
-1.335000	-160.147433	-5.066637	-73.570646	0.080222	-0.182029	-0.017062	102.406710	3.864622	-1.098976	13.291113	9.593631	-26.045877	-41.601963	30.086706	6.834902	43.985058	29.973361	24.337335	4.226391	45.654289	30.327106	13.670667	-4.431153	52.757266	36.352604	2.494226	-7.898501	61.015449	42.251034
-1.325000	-160.147433	-5.066637	-73.570646	0.080221	-0.182027	-0.017059	102.402172	3.866954	-1.093739	13.273880	9.625889	-26.053895	-41.593967	30.067367	6.837730	43.994986	29.985868	24.324512	4.225796	45.662441	30.341021	13.654871	-4.430194	52.768171	36.354822	2.496825	-7.900980	61.002438	42.245953
-1.315000	-160.147433	-5.066637	-73.570646	0.080218	-0.182021	-0.017055	102.401119	3.869892	-1.087898	13.259348	9.661522	-26.053577	-41.578535	30.053463	6.840850	44.008421	30.001771	24.308070	4.224831	45.685498	30.364415	13.641137	-4.429019	52.781020	36.359583	2.507522	-7.907164	60.989605	42.239521
-1.305000	-160.147433	-5.066637	-73.570646	0.080212	-0.182014	-0.017052	102.403548	3.873205	-1.081682	13.245895	9.695343	-26.050118	-41.563360	30.047848	6.843531	44.021581	30.016978	24.290770	4.223743	45.715360	30.391620	13.630198	-4.428469	52.794276	36.366937	2.521327	-7.915345	60.980394	42.234417
-1.295000	-160.147433	-5.066637	-73.570646	0.080206	-0.182006	-0.017050	102.407773	3.876023	-1.075688	13.231030	9.720785	-26.050921	-41.556414	30.051188	6.845676	44.028766	30.026925	24.275196	4.222819	45.742826	30.416652	13.621731	-4.429216	52.806045	36.375978	2.532632	-7.923058	60.975571	42.232006
-1.285000	-160.147433	-5.066637	-73.570646	0.080199	-0.181999	-0.017051	102.411677	3.877298	-1.070517	13.212443	9.732395	-26.061548	-41.561351	30.061268	6.847884	44.025928	30.029289	24.262578	4.222421	45.761517	30.435626	13.614717	-4.431151	52.814614	36.385174	2.538044	-7.928267	60.973488	42.232153
-1.275000	-160.147433	-5.066637	-73.570646	0.080194	-0.181996	-0.017054	102.414292	3.876657	-1.066385	13.189112	9.727978	-26.082654	-41.575539	30.073331	6.851089	44.013506	30.025500	24.252471	4.222920	45.769793	30.447737	13.608066	-4.433266	52.818993	36.392976	2.537658	-7.930311	60.971936	42.233975
-1.265000	-160.147433	-5.066637	-73.570646	0.080191	-0.181995	-0.017059	102.416545	3.874937	-1.062990	13.162030	9.709671	-26.109486	-41.591837	30.081861	6.855976	43.996563	30.019954	24.243491	4.224596	45.770060	30.454528	13.601226	-4.434195	52.819263	36.398349	2.534214	-7.930117	60.970204	42.236804
-1.255000	-160.147433	-5.066637	-73.570646	0.080191	-0.181994	-0.017064	102.420491	3.873823	-1.059714	13.134044	9.683653	-26.134070	-41.602656	30.083160	6.862511	43.982229	30.017477	24.234471	4.227578	45.766445	30.458264	13.594450	-4.433083	52.816617	36.401015	2.530931	-7.929555	60.969843	42.240630
-1.245000	-160.147433	-5.066637	-73.570646	0.080192	-0.181990	-0.017067	102.427467	3.874739	-1.056017	13.108566	9.658492	-26.148898	-41.603550	30.077160	6.869837	43.976173	30.020734	24.225120	4.231863	45.762412	30.460528	13.588517	-4.430184	52.813028	36.401376	2.529396	-7.930292	60.973720	42.245883
-1.235000	-160.147433	-5.066637	-73.570646	0.080196	-0.181984	-0.017067	102.436539	3.877837	-1.051708	13.087713	9.642389	-26.150204	-41.594451	30.067221	6.876614	43.980054	30.029007	24.215854	4.237312	45.759414	30.461695	13.584002	-4.426761	52.810582	36.400233	2.528629	-7.932820	60.984204	42.252995
-1.225000	-160.147433	-5.066637	-73.570646	0.080200	-0.181977	-0.017065	102.444557	3.881922	-1.046941	13.071110	9.640126	-26.139374	-41.578636	30.058083	6.881591	43.990963	30.038658	24.207208	4.243522	45.756881	30.461230	13.580643	-4.424397	52.810735	36.398430	2.525661	-7.936234	61.001751	42.262126
-1.215000	-160.147433	-5.066637	-73.570646	0.080204	-0.181971	-0.017061	102.447861	3.885306	-1.042030	13.056229	9.651173	-26.122131	-41.560891	30.053468	6.884131	44.002810	30.044706	24.199476	4.249664	45.753267	30.458416	13.577350	-4.424193	52.813853	36.396558	2.517248	-7.938832	61.024578	42.273090
-1.205000	-160.147433	-5.066637	-73.570646	0.080208	-0.181967	-0.017058	102.444421	3.886838	-1.037335	13.039976	9.670383	-26.106216	-41.546094	30.054867	6.884475	44.008986	30.042813	24.192825	4.254518	45.747683	30.453153	13.572978	-4.426344	52.819351	36.394843	2.501967	-7.939099	61.049297	42.285226
-1.195000	-160.147433	-5.066637	-73.570646	0.080210	-0.181966	-0.017054	102.434965	3.886371	-1.033284	13.020361	9.691276	-26.098522	-41.538257	30.061899	6.883697	44.005330	30.031123	24.187689	4.256853	45.741288	30.446494	13.567344	-4.430221	52.826305	36.393243	2.481719	-7.936500	61.072019	42.297217
-1.185000	-160.147433	-5.066637	-73.570646	0.080212	-0.181968	-0.017050	102.422498	3.884556	-1.030389	12.997215	9.710091	-26.102442	-41.539440	30.073378	6.883306	43.992237	30.011388	24.184997	4.255977	45.737460	30.440566	13.561736	-4.434773	52.834033	36.391641	2.461613	-7.931661	61.089497	42.307153
-1.175000	-160.147433	-5.066637	-73.570646	0.080211	-0.181970	-0.017047	102.410626	3.882329	-1.029059	12.971719	9.728112	-26.116172	-41.548396	30.087931	6.884605	43.974931	29.988849	24.185924	4.252089	45.740379	30.437827	13.558426	-4.438984	52.842217	36.389994	2.447885	-7.925919	61.099909	42.313068
